# xmcd CD database file
#
# Track frame offsets:
#	150
#	15844
#	36334
#	56281
#	80738
#	103550
#	120370
#	141780
#	165532
#	189931
#	211328
#	227625
#	251467
#
# Disc length: 3767 seconds
#
# Revision: 2
# Processed by: cddbd v1.4PL0 Copyright (c) Steve Scherf et al.
# Submitted via: CDex 1.50
#
DISCID=9a0eb50d
DTITLE=The Rolling Stones - Bridges to Babylon
DYEAR=1900
DGENRE=
TTITLE0=Flip the switch
TTITLE1=Anybody seen my baby?
TTITLE2=Low down
TTITLE3=Already over me
TTITLE4=Gunface
TTITLE5=You don't have to mean it
TTITLE6=Out of control
TTITLE7=Saint of me
TTITLE8=Might as well get juiced
TTITLE9=Always suffering
TTITLE10=Too tight
TTITLE11=Thief in the night
TTITLE12=How can I stop
EXTD=
EXTT0=
EXTT1=
EXTT2=
EXTT3=
EXTT4=
EXTT5=
EXTT6=
EXTT7=
EXTT8=
EXTT9=
EXTT10=
EXTT11=
EXTT12=
PLAYORDER=
